<svg xmlns="http://www.w3.org/2000/svg" width="1290" height="2796" viewBox="0 0 1290 2796">
  <defs>
    <linearGradient id="s12bg" x1="0" y1="0" x2="1" y2="1">
      <stop offset="0" stop-color="#FBF8F0"/>
      <stop offset="1" stop-color="#F5F2E8"/>
    </linearGradient>
    <linearGradient id="s12mint" x1="0" y1="0" x2="1" y2="1">
      <stop offset="0" stop-color="#E8F5ED"/>
      <stop offset="1" stop-color="#C7E6D8"/>
    </linearGradient>
    <linearGradient id="s12coral" x1="0" y1="0" x2="1" y2="1">
      <stop offset="0" stop-color="#FFF0EB"/>
      <stop offset="1" stop-color="#FFE0D7"/>
    </linearGradient>
    <filter id="s12shadow" x="-30%" y="-30%" width="160%" height="180%">
      <feDropShadow dx="0" dy="14" stdDeviation="22" flood-color="#123C37" flood-opacity="0.10"/>
    </filter>
    <filter id="s12navshadow" x="-20%" y="-60%" width="140%" height="200%">
      <feDropShadow dx="0" dy="-10" stdDeviation="22" flood-color="#123C37" flood-opacity="0.08"/>
    </filter>
  </defs>

  <rect width="1290" height="2796" fill="url(#s12bg)"/>

  <!-- iOS status bar -->
  <g fill="#123C37" font-family="Nimbus Sans, Arial, sans-serif" font-weight="700">
    <text x="74" y="76" font-size="36">9:41</text>
    <g transform="translate(1056 43)">
      <rect x="0" y="22" width="10" height="15" rx="3"/>
      <rect x="16" y="17" width="10" height="20" rx="3"/>
      <rect x="32" y="11" width="10" height="26" rx="3"/>
      <rect x="48" y="5" width="10" height="32" rx="3"/>
      <path d="M82 28c12-15 31-15 43 0l-7 7c-8-9-21-9-29 0zm10 10c6-7 16-7 22 0l-11 11z"/>
      <rect x="143" y="9" width="61" height="32" rx="9" fill="none" stroke="#123C37" stroke-width="4"/>
      <rect x="207" y="18" width="5" height="14" rx="2"/>
      <rect x="149" y="15" width="45" height="20" rx="5"/>
    </g>
  </g>

  <!-- Brand header -->
  <g transform="translate(72 130)">
    <circle cx="45" cy="45" r="45" fill="#123C37"/>
    <path d="M28 50c2-26 28-34 48-31-2 22-15 40-38 38M35 60c12-18 24-25 40-34" fill="none" stroke="#D5EF75" stroke-width="6" stroke-linecap="round" stroke-linejoin="round"/>
    <text x="111" y="57" fill="#123C37" font-family="Nimbus Sans, Arial, sans-serif" font-weight="700" font-size="43">Tether Health</text>
    <g transform="translate(843 7)">
      <circle cx="38" cy="38" r="38" fill="#FFFDF7" stroke="#C9D7D2" stroke-width="2"/>
      <path d="M26 47h24l-4-7V31c0-13-16-13-16 0v9zM34 53c2 6 8 6 10 0" fill="none" stroke="#123C37" stroke-width="4" stroke-linecap="round" stroke-linejoin="round"/>
      <circle cx="58" cy="16" r="8" fill="#FF7D61"/>
    </g>
    <g transform="translate(955 0)">
      <circle cx="45" cy="45" r="45" fill="url(#s12mint)" stroke="#B9DCCB" stroke-width="2"/>
      <text x="45" y="58" text-anchor="middle" fill="#123C37" font-family="Nimbus Sans, Arial, sans-serif" font-weight="700" font-size="39">A</text>
    </g>
  </g>

  <!-- Greeting -->
  <text x="72" y="322" fill="#718A84" font-family="Nimbus Sans, Arial, sans-serif" font-weight="700" font-size="25" letter-spacing="3">FRIDAY, AUGUST 21</text>
  <text x="72" y="402" fill="#123C37" font-family="Nimbus Sans, Arial, sans-serif" font-weight="700" font-size="62" letter-spacing="-2">Good morning, Alex.</text>

  <!-- Phase-adaptive hero: countdown + one next action -->
  <g transform="translate(72 457)" filter="url(#s12shadow)">
    <rect width="1146" height="612" rx="44" fill="#123C37"/>
    <circle cx="1008" cy="94" r="116" fill="#234E48" opacity="0.75"/>
    <circle cx="1045" cy="59" r="40" fill="#2E5A53"/>
    <path d="M1032 59l9 9 19-24" fill="none" stroke="#D5EF75" stroke-width="5" stroke-linecap="round" stroke-linejoin="round"/>

    <text x="42" y="62" fill="#BFD5CD" font-family="Nimbus Sans, Arial, sans-serif" font-weight="700" font-size="23" letter-spacing="3">YOUR QUIT DAY</text>
    <text x="42" y="182" fill="#FFFFFF" font-family="Nimbus Sans, Arial, sans-serif" font-weight="700" font-size="106" letter-spacing="-4">7 days</text>
    <text x="42" y="232" fill="#BFD5CD" font-family="Nimbus Sans, Arial, sans-serif" font-size="30">Friday, August 28 · Pacific Time</text>

    <!-- Countdown timeline -->
    <line x1="42" y1="292" x2="1104" y2="292" stroke="#54766F" stroke-width="4"/>
    <circle cx="42" cy="292" r="13" fill="#D5EF75"/>
    <circle cx="219" cy="292" r="9" fill="#6F8E88"/>
    <circle cx="396" cy="292" r="9" fill="#6F8E88"/>
    <circle cx="573" cy="292" r="9" fill="#6F8E88"/>
    <circle cx="750" cy="292" r="9" fill="#6F8E88"/>
    <circle cx="927" cy="292" r="9" fill="#6F8E88"/>
    <circle cx="1104" cy="292" r="13" fill="#FF7D61"/>
    <text x="42" y="332" fill="#BFD5CD" font-family="Nimbus Sans, Arial, sans-serif" font-size="20">DAY 1</text>
    <text x="1104" y="332" text-anchor="end" fill="#BFD5CD" font-family="Nimbus Sans, Arial, sans-serif" font-size="20">QUIT DAY</text>

    <!-- Today's single next-best action -->
    <g transform="translate(24 368)">
      <rect width="1098" height="220" rx="32" fill="#FFFDF7"/>
      <circle cx="79" cy="80" r="43" fill="url(#s12mint)"/>
      <path d="M58 80l13 13 29-36" fill="none" stroke="#123C37" stroke-width="6" stroke-linecap="round" stroke-linejoin="round"/>
      <text x="145" y="56" fill="#718A84" font-family="Nimbus Sans, Arial, sans-serif" font-weight="700" font-size="21" letter-spacing="2">TODAY’S NEXT STEP</text>
      <text x="145" y="100" fill="#123C37" font-family="Nimbus Sans, Arial, sans-serif" font-weight="700" font-size="31">Stock gum, water or healthy snacks</text>
      <text x="145" y="140" fill="#718A84" font-family="Nimbus Sans, Arial, sans-serif" font-size="24">About 3 minutes</text>
      <g transform="translate(803 145)">
        <rect width="257" height="58" rx="29" fill="#123C37"/>
        <text x="129" y="39" text-anchor="middle" fill="#FFFFFF" font-family="Nimbus Sans, Arial, sans-serif" font-weight="700" font-size="24">Mark complete</text>
      </g>
      <text x="42" y="191" fill="#718A84" font-family="Nimbus Sans, Arial, sans-serif" font-size="22">One small action is enough for today.</text>
    </g>
  </g>

  <!-- Persistent craving rescue -->
  <g transform="translate(72 1110)" filter="url(#s12shadow)">
    <rect width="1146" height="194" rx="36" fill="url(#s12coral)" stroke="#FFC6B7" stroke-width="3"/>
    <circle cx="85" cy="97" r="51" fill="#FF7D61"/>
    <path d="M60 101c10-22 20-22 30 0s20 22 30 0" fill="none" stroke="#FFFFFF" stroke-width="6" stroke-linecap="round"/>
    <text x="158" y="78" fill="#123C37" font-family="Nimbus Sans, Arial, sans-serif" font-weight="700" font-size="38">Craving now?</text>
    <text x="158" y="121" fill="#536F69" font-family="Nimbus Sans, Arial, sans-serif" font-size="27">Get support for the next few minutes.</text>
    <g transform="translate(889 61)">
      <rect width="215" height="74" rx="37" fill="#FF7D61"/>
      <text x="108" y="48" text-anchor="middle" fill="#FFFFFF" font-family="Nimbus Sans, Arial, sans-serif" font-weight="700" font-size="26">Open Rescue</text>
    </g>
  </g>

  <!-- Preparation progress -->
  <text x="72" y="1390" fill="#123C37" font-family="Nimbus Sans, Arial, sans-serif" font-weight="700" font-size="37">Your preparation</text>
  <text x="1218" y="1390" text-anchor="end" fill="#718A84" font-family="Nimbus Sans, Arial, sans-serif" font-weight="700" font-size="24">View progress</text>

  <g transform="translate(72 1427)">
    <g filter="url(#s12shadow)">
      <rect width="354" height="189" rx="32" fill="#FFFDF7"/>
      <circle cx="58" cy="59" r="29" fill="#E6F1EA"/>
      <path d="M46 59l8 8 17-21" fill="none" stroke="#123C37" stroke-width="5" stroke-linecap="round" stroke-linejoin="round"/>
      <text x="36" y="126" fill="#123C37" font-family="Nimbus Sans, Arial, sans-serif" font-weight="700" font-size="30">Plan ready</text>
      <text x="36" y="161" fill="#718A84" font-family="Nimbus Sans, Arial, sans-serif" font-size="22">Activated today</text>
    </g>
    <g transform="translate(396 0)" filter="url(#s12shadow)">
      <rect width="354" height="189" rx="32" fill="#FFFDF7"/>
      <text x="36" y="76" fill="#FF7D61" font-family="Nimbus Sans, Arial, sans-serif" font-weight="700" font-size="57">2/3</text>
      <text x="36" y="126" fill="#123C37" font-family="Nimbus Sans, Arial, sans-serif" font-weight="700" font-size="30">Space ready</text>
      <text x="36" y="161" fill="#718A84" font-family="Nimbus Sans, Arial, sans-serif" font-size="22">One task left</text>
    </g>
    <g transform="translate(792 0)" filter="url(#s12shadow)">
      <rect width="354" height="189" rx="32" fill="#FFFDF7"/>
      <circle cx="58" cy="59" r="29" fill="#E6F1EA"/>
      <circle cx="58" cy="50" r="9" fill="none" stroke="#123C37" stroke-width="4"/>
      <path d="M42 77c3-13 29-13 32 0" fill="none" stroke="#123C37" stroke-width="4" stroke-linecap="round"/>
      <text x="36" y="126" fill="#123C37" font-family="Nimbus Sans, Arial, sans-serif" font-weight="700" font-size="30">1 supporter</text>
      <text x="36" y="161" fill="#718A84" font-family="Nimbus Sans, Arial, sans-serif" font-size="22">Jordan added</text>
    </g>
  </g>

  <!-- Top reason -->
  <g transform="translate(72 1662)" filter="url(#s12shadow)">
    <rect width="1146" height="202" rx="35" fill="url(#s12mint)" stroke="#B9DCCB" stroke-width="3"/>
    <circle cx="84" cy="101" r="48" fill="#FFF0EB"/>
    <path d="M84 124s-31-19-31-41c0-17 22-24 31-8 9-16 31-9 31 8 0 22-31 41-31 41z" fill="#FF7D61"/>
    <text x="158" y="72" fill="#718A84" font-family="Nimbus Sans, Arial, sans-serif" font-weight="700" font-size="22" letter-spacing="2">YOUR TOP REASON</text>
    <text x="158" y="126" fill="#123C37" font-family="Georgia, serif" font-style="italic" font-size="40">“Protect my family.”</text>
    <path d="M1064 87l14 14-14 14" fill="none" stroke="#123C37" stroke-width="5" stroke-linecap="round" stroke-linejoin="round"/>
  </g>

  <!-- Coming up -->
  <text x="72" y="1951" fill="#123C37" font-family="Nimbus Sans, Arial, sans-serif" font-weight="700" font-size="37">Coming up</text>
  <g transform="translate(72 1987)" filter="url(#s12shadow)">
    <rect width="1146" height="311" rx="36" fill="#FFFDF7"/>
    <g transform="translate(36 29)">
      <rect width="89" height="83" rx="22" fill="#E6F1EA"/>
      <text x="45" y="33" text-anchor="middle" fill="#718A84" font-family="Nimbus Sans, Arial, sans-serif" font-weight="700" font-size="17">AUG</text>
      <text x="45" y="68" text-anchor="middle" fill="#123C37" font-family="Nimbus Sans, Arial, sans-serif" font-weight="700" font-size="29">24</text>
      <text x="119" y="34" fill="#718A84" font-family="Nimbus Sans, Arial, sans-serif" font-weight="700" font-size="20" letter-spacing="2">CARE-TEAM REMINDER</text>
      <text x="119" y="75" fill="#123C37" font-family="Nimbus Sans, Arial, sans-serif" font-weight="700" font-size="28">Discuss treatment options</text>
    </g>
    <line x1="36" y1="146" x2="1110" y2="146" stroke="#E1E9E4" stroke-width="2"/>
    <g transform="translate(36 175)">
      <rect width="89" height="83" rx="22" fill="#FFF0EB"/>
      <text x="45" y="33" text-anchor="middle" fill="#718A84" font-family="Nimbus Sans, Arial, sans-serif" font-weight="700" font-size="17">AUG</text>
      <text x="45" y="68" text-anchor="middle" fill="#123C37" font-family="Nimbus Sans, Arial, sans-serif" font-weight="700" font-size="29">27</text>
      <text x="119" y="34" fill="#718A84" font-family="Nimbus Sans, Arial, sans-serif" font-weight="700" font-size="20" letter-spacing="2">SUPPORT CHECK-IN</text>
      <text x="119" y="75" fill="#123C37" font-family="Nimbus Sans, Arial, sans-serif" font-weight="700" font-size="28">Review Jordan’s message before sending</text>
    </g>
  </g>

  <!-- Offline reassurance -->
  <g transform="translate(72 2333)">
    <circle cx="25" cy="25" r="25" fill="#E6F1EA"/>
    <path d="M14 26c7-9 16-9 23 0M20 32c4-4 8-4 12 0" fill="none" stroke="#123C37" stroke-width="4" stroke-linecap="round"/>
    <text x="66" y="34" fill="#718A84" font-family="Nimbus Sans, Arial, sans-serif" font-size="24">Your plan and Rescue tools remain available offline.</text>
  </g>

  <!-- Bottom navigation -->
  <g transform="translate(0 2453)" filter="url(#s12navshadow)">
    <path d="M0 32Q0 0 32 0h1226q32 0 32 32v311H0z" fill="#FFFDF7"/>
    <line x1="0" y1="0" x2="1290" y2="0" stroke="#E2E9E5" stroke-width="2"/>

    <!-- Home active -->
    <g transform="translate(80 35)">
      <rect width="154" height="102" rx="38" fill="#E6F1EA"/>
      <path d="M49 54l28-25 28 25v31H85V65H69v20H49z" fill="none" stroke="#123C37" stroke-width="5" stroke-linejoin="round"/>
      <text x="77" y="133" text-anchor="middle" fill="#123C37" font-family="Nimbus Sans, Arial, sans-serif" font-weight="700" font-size="21">Home</text>
    </g>

    <!-- Plan -->
    <g transform="translate(308 44)">
      <rect x="36" y="4" width="54" height="69" rx="8" fill="none" stroke="#718A84" stroke-width="5"/>
      <path d="M49 25h28M49 41h28M49 57h20" fill="none" stroke="#718A84" stroke-width="4" stroke-linecap="round"/>
      <text x="63" y="124" text-anchor="middle" fill="#718A84" font-family="Nimbus Sans, Arial, sans-serif" font-size="21">Plan</text>
    </g>

    <!-- Progress -->
    <g transform="translate(542 44)">
      <path d="M31 70V48M56 70V31M81 70V14" fill="none" stroke="#718A84" stroke-width="8" stroke-linecap="round"/>
      <text x="56" y="124" text-anchor="middle" fill="#718A84" font-family="Nimbus Sans, Arial, sans-serif" font-size="21">Progress</text>
    </g>

    <!-- Learn -->
    <g transform="translate(780 44)">
      <path d="M20 20c19-7 36-4 49 7v52c-13-11-30-14-49-7zM118 20c-19-7-36-4-49 7v52c13-11 30-14 49-7z" fill="none" stroke="#718A84" stroke-width="5" stroke-linejoin="round"/>
      <text x="69" y="124" text-anchor="middle" fill="#718A84" font-family="Nimbus Sans, Arial, sans-serif" font-size="21">Learn</text>
    </g>

    <!-- Support -->
    <g transform="translate(1030 44)">
      <circle cx="54" cy="29" r="17" fill="none" stroke="#718A84" stroke-width="5"/>
      <path d="M23 78c5-28 57-28 62 0M89 28h25v20H101l-9 9v-9h-3z" fill="none" stroke="#718A84" stroke-width="5" stroke-linecap="round" stroke-linejoin="round"/>
      <text x="69" y="124" text-anchor="middle" fill="#718A84" font-family="Nimbus Sans, Arial, sans-serif" font-size="21">Support</text>
    </g>
  </g>

  <!-- iOS home indicator -->
  <rect x="468" y="2738" width="354" height="16" rx="8" fill="#123C37"/>
</svg>
